<?xml version="1.0" standalone="no"?>
<!DOCTYPE svg PUBLIC "-//W3C//DTD SVG 20010904//EN"
 "http://www.w3.org/TR/2001/REC-SVG-20010904/DTD/svg10.dtd">
<svg version="1.0" xmlns="http://www.w3.org/2000/svg"
 width="286.000000pt" height="286.000000pt" viewBox="0 0 286.000000 286.000000"
 preserveAspectRatio="xMidYMid meet">
<metadata>
Created by potrace 1.14, written by Peter Selinger 2001-2017
</metadata>
<g transform="translate(0.000000,286.000000) scale(0.100000,-0.100000)"
fill="#000000" stroke="none">
<path d="M972 2843 c-138 -47 -257 -317 -253 -572 2 -98 2 -101 17 -171 54
-263 155 -400 296 -400 102 1 168 52 232 178 68 135 81 197 81 387 0 193 -14
272 -71 389 -81 164 -184 228 -302 189z"/>
<path d="M1749 2833 c-89 -45 -174 -179 -214 -338 -29 -113 -26 -342 7 -474
25 -103 94 -224 157 -276 118 -97 270 -43 356 125 27 55 108 387 99 409 -3 9
-8 39 -11 66 -33 359 -211 579 -394 488z"/>
<path d="M278 2126 c-75 -27 -162 -130 -208 -247 -51 -129 -72 -320 -49 -444
5 -28 12 -63 15 -79 17 -97 93 -261 146 -315 122 -125 282 -72 381 126 59 117
81 221 81 378 0 89 -9 179 -25 240 -5 22 -11 47 -13 55 -7 28 -39 105 -55 130
-77 128 -182 188 -273 156z"/>
<path d="M2453 2113 c-167 -91 -263 -388 -228 -703 20 -181 128 -381 229 -424
45 -20 138 -13 180 14 123 75 205 274 212 514 8 250 -52 438 -175 549 -75 67
-153 85 -218 50z"/>
<path d="M1320 1538 c-203 -37 -341 -111 -493 -262 -228 -227 -419 -643 -426
-926 -4 -173 60 -284 187 -328 52 -18 177 -8 262 21 111 38 163 56 185 67 37
17 129 52 190 70 179 56 318 46 530 -36 384 -149 462 -164 570 -109 79 41 113
86 140 187 21 78 22 100 11 203 -6 60 -43 199 -78 295 -122 338 -360 634 -601
747 -59 28 -160 59 -219 69 -65 10 -207 11 -258 2z"/>
</g>
</svg>
